<svg width="23" height="24" viewBox="0 0 23 24" fill="none" xmlns="http://www.w3.org/2000/svg">
<path d="M19.1667 9.125H10.5417C9.48312 9.125 8.625 9.98312 8.625 11.0417V19.6667C8.625 20.7252 9.48312 21.5833 10.5417 21.5833H19.1667C20.2252 21.5833 21.0833 20.7252 21.0833 19.6667V11.0417C21.0833 9.98312 20.2252 9.125 19.1667 9.125Z" stroke="#364364" stroke-linecap="round" stroke-linejoin="round"/>
<path d="M4.79163 14.8751H3.83329C3.32496 14.8751 2.83745 14.6731 2.478 14.3137C2.11856 13.9543 1.91663 13.4667 1.91663 12.9584V4.33341C1.91663 3.82508 2.11856 3.33757 2.478 2.97813C2.83745 2.61868 3.32496 2.41675 3.83329 2.41675H12.4583C12.9666 2.41675 13.4541 2.61868 13.8136 2.97813C14.173 3.33757 14.375 3.82508 14.375 4.33341V5.29175" stroke="#364364" stroke-linecap="round" stroke-linejoin="round"/>
</svg>
